::::::: UnKnOwN Presents :::::::


:::: Zookeeper 2011 ::::


::Zookeeper 2011 CAM Xvid UnKnOwN::


::NOTES::


Encoded By .......:UnKnOwN 
Release Date ......... 2011
Runtime ..........:1:36 
Source ......... Your Sister(:
IMDb URL .........:http://www.imdb.com/title/tt1222817/ 
File Type ......... Single AVI
Language .........:English 
PS3 Compatible ....... Why dont You complain in comments and let me know(:
File Size ........:681mb 
Genre ......... Comedy/Kids


::Video::


ID: 0
Format: MPEG-4 Visual
Format profile: Advanced Simple@L5
Format settings, BVOP: Yes
Format settings, QPel: No
Format settings, GMC: No warppoints
Format settings, Matrix: Custom
Codec ID: XVID
Codec ID/Hint: XviD
Duration: 1h 36mn
Bit rate: 1038 Kbps
Width: 640 pixels
Height: 272 pixels
Display aspect ratio: 2.35:1
Frame rate: 29.970 fps
Color space: YUV
Chroma subsampling: 4:2:0
Bit depth: 8 bits
Scan type: Progressive
Bits/(Pixel*Frame): 0.161
Stream size: 579 MiB (86%)
Writing library: XviD 1.2.1 (UTC 2008-12-04)


::Audio::


ID: 1
Format: MPEG Audio
Format version: Version 1
Format profile: Layer 3
Mode: Joint stereo
Mode extension: MS Stereo
Codec ID: 55
Codec ID/Hint: MP3
Duration: 1h 36mn
Bit rate mode: Constant
Bit rate: 128 Kbps
Channel(s): 2 channels
Sampling rate: 48.0 KHz
Stream size: 88.4 MiB (13%)
Alignment: Aligned on interleaves
Interleave, duration: 24 ms (0.72 video frame)
Interleave, preload duration: 504 ms


::SYSPNOSIS::


A group of zoo animals decide to break their code of silence in order 
to help their lovable zookeeper (Kevin James) find love -- without opting 
to leave his current job for something more illustrious woman.


::RELEASE INFO::


Thanks for source files fella(: video was extremely interlaced deinterlaced 
it adjusted colors crop resize,rotated bla bla came out good,audio slightly cleaned not bad at all.All in all watchable cam but i am sure someone will 
find something to whine about.
If only i had the skills to mux it to 18 channel dolby digital audio and make it HQ but alas i have no skills(:
sample included enjoy


::More Information::

 
http://www.postimg.com/image/42000/photo-41495.jpg


::Screens::

 
http://www.postimg.com/image/42000/photo-41496.jpg
 
http://www.postimg.com/image/42000/photo-41497.jpg
 
http://www.postimg.com/image/42000/photo-41498.jpg


ENJOY!